<svg width="180" height="36" viewBox="0 0 180 36" fill="none" xmlns="http://www.w3.org/2000/svg">
<g clip-path="url(#clip0_1_42)">
<path d="M0 14C0 7.37258 5.37258 2 12 2V2C18.6274 2 24 7.37258 24 14V34H0V14Z" fill="url(#paint0_linear_1_42)"/>
<g filter="url(#filter0_f_1_42)">
<path d="M5.5 33.5C7.18614 33.0622 9.83897 33.584 11.5 33C15 33 16.6285 33.7481 19.5 33C19.8562 32.9072 19.6869 31.4545 20.0413 31.346C20.0956 31.3293 20.2544 31.3148 20.2022 31.2803C20.0941 31.2089 19.9731 31.2342 19.8582 31.2251C19.4927 31.1961 19.1272 31.1819 18.7617 31.1661C16.57 31.0712 17.6883 30.3789 15.5 30C14.5195 29.8302 6.48124 29.6611 5.50001 29.5C6.05193 29.0111 8.43084 28.4297 9.00001 28C10.1135 27.1595 13.1344 26.542 14.2638 25.7629C14.4995 25.6003 15.3539 25.0621 15.6073 24.7017C15.6769 24.6026 15.7825 24.3905 15.7174 24.2766C15.5222 23.9352 14.3769 23.9119 14.3243 23.9102C13.1573 23.8717 12.0001 24.1391 10.8347 24.1538C10.7305 24.1552 10.0218 24.1508 9.86715 24.0368C9.44147 23.7232 10.3873 22.7219 10.7734 22.3179C11.9413 21.0959 13.1983 20.1839 14.4196 19.1325C15.3483 18.333 14.0643 18.8462 13.8262 18.7778C13.4057 18.6569 13.3493 18.096 13.2766 17.4495C13.0839 15.7347 12.6295 15.2275 12.5 13.5" stroke="url(#paint1_linear_1_42)" stroke-linecap="round"/>
</g>
</g>
<path d="M39.8725 28.8V7.2H48.4375C49.8975 7.2 51.0925 7.495 52.0225 8.085C52.9625 8.665 53.6575 9.41 54.1075 10.32C54.5675 11.23 54.7975 12.17 54.7975 13.14C54.7975 14.33 54.5125 15.34 53.9425 16.17C53.3825 17 52.6175 17.56 51.6475 17.85V17.1C53.0075 17.41 54.0375 18.055 54.7375 19.035C55.4475 20.015 55.8025 21.13 55.8025 22.38C55.8025 23.66 55.5575 24.78 55.0675 25.74C54.5775 26.7 53.8475 27.45 52.8775 27.99C51.9175 28.53 50.7275 28.8 49.3075 28.8H39.8725ZM43.5325 25.395H48.8575C49.4875 25.395 50.0525 25.27 50.5525 25.02C51.0525 24.76 51.4425 24.4 51.7225 23.94C52.0125 23.47 52.1575 22.915 52.1575 22.275C52.1575 21.695 52.0325 21.175 51.7825 20.715C51.5325 20.255 51.1675 19.89 50.6875 19.62C50.2075 19.34 49.6325 19.2 48.9625 19.2H43.5325V25.395ZM43.5325 15.825H48.3925C48.9125 15.825 49.3775 15.725 49.7875 15.525C50.1975 15.325 50.5225 15.03 50.7625 14.64C51.0025 14.25 51.1225 13.77 51.1225 13.2C51.1225 12.45 50.8825 11.825 50.4025 11.325C49.9225 10.825 49.2525 10.575 48.3925 10.575H43.5325V15.825Z" fill="#FAFAFA"/>
<path d="M64.1232 29.265C62.9232 29.265 61.9332 29.065 61.1532 28.665C60.3732 28.265 59.7532 27.755 59.2932 27.135C58.8332 26.515 58.4932 25.855 58.2732 25.155C58.0532 24.455 57.9082 23.795 57.8382 23.175C57.7782 22.545 57.7482 22.035 57.7482 21.645V12.6H61.4082V20.4C61.4082 20.9 61.4432 21.465 61.5132 22.095C61.5832 22.715 61.7432 23.315 61.9932 23.895C62.2532 24.465 62.6332 24.935 63.1332 25.305C63.6432 25.675 64.3282 25.86 65.1882 25.86C65.6482 25.86 66.1032 25.785 66.5532 25.635C67.0032 25.485 67.4082 25.23 67.7682 24.87C68.1382 24.5 68.4332 23.995 68.6532 23.355C68.8732 22.715 68.9832 21.905 68.9832 20.925L71.1283 21.84C71.1283 23.22 70.8582 24.47 70.3182 25.59C69.7882 26.71 69.0032 27.605 67.9632 28.275C66.9232 28.935 65.6432 29.265 64.1232 29.265ZM69.4182 28.8V23.775H68.9832V12.6H72.6133V28.8H69.4182Z" fill="#FAFAFA"/>
<path d="M76.3775 10.14V6.825H79.9925V10.14H76.3775ZM76.3775 28.8V12.6H79.9925V28.8H76.3775Z" fill="#FAFAFA"/>
<path d="M84.0357 28.8V6.75H87.6507V28.8H84.0357Z" fill="#FAFAFA"/>
<path d="M97.889 29.25C96.399 29.25 95.099 28.875 93.989 28.125C92.879 27.375 92.019 26.355 91.409 25.065C90.799 23.775 90.4939 22.32 90.4939 20.7C90.4939 19.06 90.799 17.6 91.409 16.32C92.029 15.03 92.904 14.015 94.034 13.275C95.164 12.525 96.494 12.15 98.024 12.15C99.564 12.15 100.854 12.525 101.894 13.275C102.944 14.015 103.739 15.03 104.279 16.32C104.819 17.61 105.089 19.07 105.089 20.7C105.089 22.31 104.819 23.765 104.279 25.065C103.739 26.355 102.934 27.375 101.864 28.125C100.794 28.875 99.469 29.25 97.889 29.25ZM98.444 26.01C99.414 26.01 100.194 25.79 100.784 25.35C101.384 24.9 101.819 24.275 102.089 23.475C102.369 22.675 102.509 21.75 102.509 20.7C102.509 19.64 102.369 18.715 102.089 17.925C101.819 17.125 101.394 16.505 100.814 16.065C100.234 15.615 99.484 15.39 98.564 15.39C97.594 15.39 96.794 15.63 96.164 16.11C95.534 16.58 95.069 17.22 94.769 18.03C94.469 18.83 94.319 19.72 94.319 20.7C94.319 21.69 94.464 22.59 94.754 23.4C95.054 24.2 95.5089 24.835 96.1189 25.305C96.729 25.775 97.504 26.01 98.444 26.01ZM102.509 28.8V17.43H102.059V7.2H105.704V28.8H102.509Z" fill="#FAFAFA"/>
<path d="M115.415 29.25C113.415 29.25 111.79 28.8 110.54 27.9C109.29 27 108.53 25.735 108.26 24.105L111.95 23.535C112.14 24.335 112.56 24.965 113.21 25.425C113.86 25.885 114.68 26.115 115.67 26.115C116.54 26.115 117.21 25.945 117.68 25.605C118.16 25.255 118.4 24.78 118.4 24.18C118.4 23.81 118.31 23.515 118.13 23.295C117.96 23.065 117.58 22.845 116.99 22.635C116.4 22.425 115.495 22.16 114.275 21.84C112.915 21.48 111.835 21.095 111.035 20.685C110.235 20.265 109.66 19.77 109.31 19.2C108.96 18.63 108.785 17.94 108.785 17.13C108.785 16.12 109.05 15.24 109.58 14.49C110.11 13.74 110.85 13.165 111.8 12.765C112.75 12.355 113.87 12.15 115.16 12.15C116.42 12.15 117.535 12.345 118.505 12.735C119.485 13.125 120.275 13.68 120.875 14.4C121.475 15.12 121.845 15.965 121.985 16.935L118.295 17.595C118.205 16.905 117.89 16.36 117.35 15.96C116.82 15.56 116.11 15.335 115.22 15.285C114.37 15.235 113.685 15.365 113.165 15.675C112.645 15.975 112.385 16.4 112.385 16.95C112.385 17.26 112.49 17.525 112.7 17.745C112.91 17.965 113.33 18.185 113.96 18.405C114.6 18.625 115.55 18.895 116.81 19.215C118.1 19.545 119.13 19.925 119.9 20.355C120.68 20.775 121.24 21.28 121.58 21.87C121.93 22.46 122.105 23.175 122.105 24.015C122.105 25.645 121.51 26.925 120.32 27.855C119.14 28.785 117.505 29.25 115.415 29.25Z" fill="#FAFAFA"/>
<path d="M134.135 28.8C133.065 29 132.015 29.085 130.985 29.055C129.965 29.035 129.05 28.85 128.24 28.5C127.43 28.14 126.815 27.575 126.395 26.805C126.025 26.105 125.83 25.39 125.81 24.66C125.79 23.93 125.78 23.105 125.78 22.185V8.1H129.38V21.975C129.38 22.625 129.385 23.195 129.395 23.685C129.415 24.175 129.52 24.575 129.71 24.885C130.07 25.485 130.645 25.82 131.435 25.89C132.225 25.96 133.125 25.92 134.135 25.77V28.8ZM122.84 15.435V12.6H134.135V15.435H122.84Z" fill="#FAFAFA"/>
<path d="M143.203 29.25C141.583 29.25 140.168 28.885 138.958 28.155C137.748 27.425 136.808 26.42 136.138 25.14C135.478 23.85 135.148 22.37 135.148 20.7C135.148 19 135.488 17.51 136.168 16.23C136.848 14.95 137.793 13.95 139.003 13.23C140.213 12.51 141.613 12.15 143.203 12.15C144.833 12.15 146.253 12.515 147.463 13.245C148.673 13.975 149.613 14.985 150.283 16.275C150.953 17.555 151.288 19.03 151.288 20.7C151.288 22.38 150.948 23.865 150.268 25.155C149.598 26.435 148.658 27.44 147.448 28.17C146.238 28.89 144.823 29.25 143.203 29.25ZM143.203 25.86C144.643 25.86 145.713 25.38 146.413 24.42C147.113 23.46 147.463 22.22 147.463 20.7C147.463 19.13 147.108 17.88 146.398 16.95C145.688 16.01 144.623 15.54 143.203 15.54C142.233 15.54 141.433 15.76 140.803 16.2C140.183 16.63 139.723 17.235 139.423 18.015C139.123 18.785 138.973 19.68 138.973 20.7C138.973 22.27 139.328 23.525 140.038 24.465C140.758 25.395 141.813 25.86 143.203 25.86Z" fill="#FAFAFA"/>
<path d="M153.843 28.8V12.6H157.038V16.545L156.648 16.035C156.848 15.495 157.113 15.005 157.443 14.565C157.783 14.115 158.188 13.745 158.658 13.455C159.058 13.185 159.498 12.975 159.978 12.825C160.468 12.665 161.237 12.63 161.747 12.6C162.29 12.6 165.997 12.6 166.588 12.6C166.588 12.6 165.655 19.558 164.736 17.2999C164.203 15.9901 163.063 16.0041 162.963 15.975C162.863 15.9459 161.928 15.79 161.298 15.84C160.678 15.89 160.118 16.065 159.618 16.365C159.118 16.635 158.708 16.98 158.388 17.4C158.078 17.82 157.848 18.3 157.698 18.84C157.548 19.37 157.473 19.945 157.473 20.565V28.8H153.843Z" fill="#FAFAFA"/>
<path d="M166.708 36L169.828 27.435L169.888 29.955L162.823 12.6H166.588L171.598 25.44H170.638L175.513 12.6H179.128L170.098 36H166.708Z" fill="#FAFAFA"/>
<defs>
<filter id="filter0_f_1_42" x="0.881378" y="9.49998" width="23.3316" height="28.0001" filterUnits="userSpaceOnUse" color-interpolation-filters="sRGB">
<feFlood flood-opacity="0" result="BackgroundImageFix"/>
<feBlend mode="normal" in="SourceGraphic" in2="BackgroundImageFix" result="shape"/>
<feGaussianBlur stdDeviation="1.75" result="effect1_foregroundBlur_1_42"/>
</filter>
<linearGradient id="paint0_linear_1_42" x1="12" y1="2" x2="12" y2="34" gradientUnits="userSpaceOnUse">
<stop stop-color="#FFC700"/>
<stop offset="1" stop-color="#FF7A00"/>
</linearGradient>
<linearGradient id="paint1_linear_1_42" x1="12.3775" y1="13.5031" x2="12.8827" y2="33.4386" gradientUnits="userSpaceOnUse">
<stop stop-color="white" stop-opacity="0.64"/>
<stop offset="1" stop-color="white"/>
</linearGradient>
<clipPath id="clip0_1_42">
<path d="M0 14C0 7.37258 5.37258 2 12 2V2C18.6274 2 24 7.37258 24 14V34H0V14Z" fill="white"/>
</clipPath>
</defs>
</svg>
