<svg width="641" height="129" viewBox="0 0 641 129" fill="none" xmlns="http://www.w3.org/2000/svg">
<g clip-path="url(#clip0_148_209)">
<path d="M0 50.0559C0 26.3601 19.2092 7.15088 42.905 7.15088C66.6008 7.15088 85.8101 26.3601 85.8101 50.0559V121.564H0V50.0559Z" fill="url(#paint0_linear_148_209)"/>
<g filter="url(#filter0_f_148_209)">
<path d="M19.6648 119.776C25.6935 118.211 35.1785 120.077 41.1174 117.989C53.6314 117.989 59.4538 120.664 69.7208 117.989C70.9943 117.657 70.3889 112.463 71.6559 112.075C71.8503 112.015 72.418 111.963 72.2312 111.84C71.8448 111.585 71.4121 111.675 71.0013 111.643C69.6948 111.539 68.3878 111.488 67.0811 111.432C59.2448 111.093 63.243 108.617 55.4191 107.263C51.9135 106.656 23.1732 106.051 19.6649 105.475C21.6382 103.727 30.1438 101.648 32.1789 100.112C36.1599 97.1064 46.961 94.8988 50.9992 92.1133C51.842 91.5319 54.8967 89.6076 55.8027 88.3189C56.0517 87.9647 56.4292 87.2061 56.1965 86.7991C55.4986 85.5783 51.4035 85.4951 51.2156 85.4889C47.043 85.3512 42.9054 86.3075 38.7388 86.36C38.3659 86.3647 35.8322 86.3491 35.2792 85.9417C33.7573 84.8202 37.139 81.2402 38.5196 79.7957C42.6953 75.4266 47.1894 72.1658 51.5561 68.4067C54.8766 65.5482 50.2858 67.383 49.4344 67.1383C47.931 66.7061 47.7292 64.7005 47.4695 62.3892C46.7806 56.2583 45.1557 54.4446 44.6927 48.2681" stroke="url(#paint1_linear_148_209)" stroke-width="3.57542" stroke-linecap="round"/>
</g>
</g>
<path d="M142.561 102.972V25.7432H173.184C178.404 25.7432 182.677 26.798 186.002 28.9075C189.363 30.9812 191.848 33.6449 193.457 36.8985C195.102 40.1522 195.924 43.513 195.924 46.9812C195.924 51.236 194.905 54.8471 192.867 57.8147C190.865 60.7823 188.13 62.7846 184.661 63.8214V61.1399C189.524 62.2482 193.207 64.5544 195.709 68.0583C198.248 71.5622 199.517 75.5488 199.517 80.0181C199.517 84.5946 198.641 88.5991 196.889 92.0315C195.137 95.4639 192.527 98.1454 189.059 100.076C185.627 102.007 181.372 102.972 176.295 102.972H142.561ZM155.647 90.798H174.686C176.938 90.798 178.959 90.351 180.746 89.4572C182.534 88.5276 183.928 87.2404 184.93 85.5957C185.966 83.9153 186.485 81.9309 186.485 79.6427C186.485 77.5689 186.038 75.7097 185.144 74.065C184.25 72.4203 182.945 71.1153 181.229 70.1499C179.513 69.1488 177.457 68.6482 175.061 68.6482H155.647V90.798ZM155.647 56.5812H173.023C174.883 56.5812 176.545 56.2237 178.011 55.5086C179.477 54.7935 180.639 53.7387 181.497 52.3443C182.355 50.9499 182.784 49.2337 182.784 47.1957C182.784 44.5142 181.926 42.2795 180.21 40.4918C178.494 38.7041 176.098 37.8103 173.023 37.8103H155.647V56.5812Z" fill="#FAFAFA"/>
<path d="M229.267 104.635C224.977 104.635 221.437 103.92 218.648 102.49C215.86 101.059 213.643 99.236 211.998 97.0192C210.354 94.8024 209.138 92.4427 208.351 89.9399C207.565 87.4371 207.046 85.0773 206.796 82.8605C206.581 80.608 206.474 78.7846 206.474 77.3901V45.0505H219.56V72.9387C219.56 74.7265 219.685 76.7466 219.936 78.9991C220.186 81.2158 220.758 83.3611 221.652 85.4348C222.581 87.4728 223.94 89.1533 225.728 90.4762C227.551 91.7991 230 92.4605 233.075 92.4605C234.72 92.4605 236.347 92.1924 237.956 91.6561C239.565 91.1198 241.013 90.208 242.3 88.9209C243.623 87.598 244.678 85.7924 245.464 83.5041C246.251 81.2158 246.644 78.3198 246.644 74.8158L254.313 78.0873C254.313 83.0214 253.348 87.4907 251.417 91.4952C249.522 95.4996 246.716 98.6996 242.997 101.095C239.279 103.455 234.702 104.635 229.267 104.635ZM248.199 102.972V85.0058H246.644V45.0505H259.623V102.972H248.199Z" fill="#FAFAFA"/>
<path d="M273.082 36.2549V24.4024H286.007V36.2549H273.082ZM273.082 102.972V45.0505H286.007V102.972H273.082Z" fill="#FAFAFA"/>
<path d="M300.463 102.972V24.1343H313.388V102.972H300.463Z" fill="#FAFAFA"/>
<path d="M349.994 104.581C344.667 104.581 340.019 103.24 336.05 100.559C332.081 97.8773 329.006 94.2304 326.825 89.6181C324.644 85.0058 323.554 79.8036 323.554 74.0114C323.554 68.1477 324.644 62.9276 326.825 58.351C329.042 53.7387 332.171 50.1097 336.211 47.4639C340.251 44.7823 345.006 43.4415 350.477 43.4415C355.983 43.4415 360.595 44.7823 364.314 47.4639C368.068 50.1097 370.91 53.7387 372.841 58.351C374.772 62.9633 375.737 68.1834 375.737 74.0114C375.737 79.7678 374.772 84.97 372.841 89.6181C370.91 94.2304 368.032 97.8773 364.206 100.559C360.381 103.24 355.643 104.581 349.994 104.581ZM351.978 92.9968C355.447 92.9968 358.235 92.2103 360.345 90.6371C362.49 89.0281 364.045 86.7935 365.011 83.9332C366.012 81.0728 366.512 77.7656 366.512 74.0114C366.512 70.2214 366.012 66.9142 365.011 64.0896C364.045 61.2292 362.526 59.0125 360.452 57.4393C358.378 55.8304 355.697 55.0259 352.407 55.0259C348.939 55.0259 346.079 55.884 343.826 57.6002C341.574 59.2806 339.911 61.5689 338.839 64.465C337.766 67.3253 337.23 70.5075 337.23 74.0114C337.23 77.551 337.748 80.7689 338.785 83.665C339.858 86.5253 341.485 88.7957 343.666 90.4762C345.847 92.1566 348.617 92.9968 351.978 92.9968ZM366.512 102.972V62.3198H364.904V25.7432H377.936V102.972H366.512Z" fill="#FAFAFA"/>
<path d="M412.655 104.581C405.505 104.581 399.695 102.972 395.225 99.7544C390.756 96.5365 388.039 92.0136 387.073 86.1857L400.267 84.1477C400.946 87.008 402.448 89.2605 404.772 90.9052C407.096 92.5499 410.028 93.3723 413.567 93.3723C416.678 93.3723 419.073 92.7644 420.754 91.5488C422.47 90.2974 423.328 88.5991 423.328 86.4538C423.328 85.1309 423.006 84.0762 422.363 83.2896C421.755 82.4672 420.396 81.6806 418.287 80.9298C416.177 80.179 412.941 79.2315 408.579 78.0873C403.717 76.8002 399.855 75.4237 396.995 73.9577C394.135 72.4561 392.079 70.6862 390.828 68.6482C389.576 66.6103 388.95 64.1432 388.95 61.2471C388.95 57.6359 389.898 54.4896 391.793 51.808C393.688 49.1265 396.334 47.0706 399.73 45.6404C403.127 44.1745 407.131 43.4415 411.744 43.4415C416.249 43.4415 420.235 44.1387 423.704 45.5332C427.207 46.9276 430.032 48.9119 432.177 51.4862C434.323 54.0605 435.645 57.0818 436.146 60.5499L422.953 62.9097C422.631 60.4427 421.505 58.494 419.574 57.0639C417.679 55.6337 415.14 54.8292 411.958 54.6505C408.919 54.4717 406.47 54.9365 404.611 56.0449C402.752 57.1175 401.822 58.6371 401.822 60.6035C401.822 61.7119 402.197 62.6594 402.948 63.446C403.699 64.2326 405.201 65.0192 407.453 65.8058C409.742 66.5924 413.138 67.5577 417.643 68.7019C422.255 69.8818 425.938 71.2404 428.691 72.7779C431.48 74.2795 433.482 76.0851 434.698 78.1946C435.949 80.3041 436.575 82.8605 436.575 85.8639C436.575 91.6918 434.448 96.2684 430.193 99.5935C425.974 102.919 420.128 104.581 412.655 104.581Z" fill="#FAFAFA"/>
<path d="M479.589 102.972C475.763 103.687 472.009 103.991 468.326 103.884C464.68 103.812 461.408 103.151 458.512 101.9C455.616 100.612 453.417 98.5924 451.915 95.8393C450.592 93.3365 449.895 90.7801 449.824 88.17C449.752 85.56 449.716 82.6103 449.716 79.3209V28.9611H462.588V78.57C462.588 80.8941 462.606 82.932 462.642 84.684C462.713 86.436 463.088 87.8661 463.768 88.9745C465.055 91.1198 467.111 92.3175 469.935 92.5678C472.76 92.8181 475.978 92.6751 479.589 92.1387V102.972ZM439.205 55.1868V45.0505H479.589V55.1868H439.205Z" fill="#FAFAFA"/>
<path d="M512.012 104.581C506.219 104.581 501.16 103.276 496.834 100.666C492.508 98.0561 489.147 94.4628 486.751 89.8862C484.392 85.2739 483.212 79.9823 483.212 74.0114C483.212 67.9332 484.427 62.6058 486.859 58.0292C489.29 53.4527 492.669 49.8773 496.995 47.303C501.321 44.7287 506.327 43.4415 512.012 43.4415C517.84 43.4415 522.917 44.7466 527.243 47.3566C531.569 49.9667 534.93 53.5779 537.326 58.1901C539.721 62.7667 540.919 68.0404 540.919 74.0114C540.919 80.0181 539.703 85.3276 537.272 89.9399C534.876 94.5164 531.516 98.1097 527.189 100.72C522.863 103.294 517.804 104.581 512.012 104.581ZM512.012 92.4605C517.16 92.4605 520.986 90.7443 523.489 87.3119C525.992 83.8795 527.243 79.446 527.243 74.0114C527.243 68.398 525.974 63.9287 523.435 60.6035C520.897 57.2427 517.089 55.5622 512.012 55.5622C508.543 55.5622 505.683 56.3488 503.431 57.922C501.214 59.4594 499.569 61.6225 498.497 64.4114C497.424 67.1644 496.888 70.3644 496.888 74.0114C496.888 79.6248 498.157 84.1119 500.695 87.4728C503.27 90.798 507.042 92.4605 512.012 92.4605Z" fill="#FAFAFA"/>
<path d="M550.054 102.972V45.0505H561.477V59.1555L560.083 57.332C560.798 55.4013 561.745 53.6494 562.925 52.0762C564.141 50.4672 565.589 49.1443 567.269 48.1075C568.7 47.1421 570.273 46.3913 571.989 45.8549C573.741 45.2829 576.492 45.1577 578.315 45.0505C580.256 45.0505 593.51 45.0505 595.62 45.0505C595.62 45.0505 592.286 69.9283 589 61.8546C587.44 58.0223 583.019 57.2217 582.662 57.1175C582.305 57.0134 578.961 56.4561 576.709 56.6348C574.492 56.8136 572.49 57.4393 570.702 58.5119C568.914 59.4773 567.448 60.7108 566.304 62.2125C565.196 63.7142 564.373 65.4304 563.837 67.3611C563.301 69.2561 563.033 71.3119 563.033 73.5287V102.972H550.054Z" fill="#FAFAFA"/>
<path d="M596.049 128.715L607.205 98.0918L607.419 107.102L582.159 45.0505H595.62L613.533 90.9589H610.101L627.531 45.0505H640.456L608.17 128.715H596.049Z" fill="#FAFAFA"/>
<defs>
<filter id="filter0_f_148_209" x="3.15132" y="33.9665" width="83.4203" height="100.112" filterUnits="userSpaceOnUse" color-interpolation-filters="sRGB">
<feFlood flood-opacity="0" result="BackgroundImageFix"/>
<feBlend mode="normal" in="SourceGraphic" in2="BackgroundImageFix" result="shape"/>
<feGaussianBlur stdDeviation="6.25698" result="effect1_foregroundBlur_148_209"/>
</filter>
<linearGradient id="paint0_linear_148_209" x1="42.905" y1="7.15088" x2="42.905" y2="121.564" gradientUnits="userSpaceOnUse">
<stop stop-color="#FF9500"/>
<stop offset="1" stop-color="#FF4F00"/>
</linearGradient>
<linearGradient id="paint1_linear_148_209" x1="44.2549" y1="48.2792" x2="46.061" y2="119.557" gradientUnits="userSpaceOnUse">
<stop stop-color="white" stop-opacity="0.64"/>
<stop offset="1" stop-color="white"/>
</linearGradient>
<clipPath id="clip0_148_209">
<path d="M0 50.0559C0 26.3601 19.2092 7.15088 42.905 7.15088C66.6008 7.15088 85.8101 26.3601 85.8101 50.0559V121.564H0V50.0559Z" fill="white"/>
</clipPath>
</defs>
</svg>
